<svg xmlns="http://www.w3.org/2000/svg" viewBox="0 0 933 1245"><defs/><filter id="a"><feGaussianBlur stdDeviation="2"/></filter><rect width="100%" height="100%" fill="#42364b"/><g filter="url(#a)"><g fill-opacity=".5"><path fill="#947aae" d="M276.7 457.6L17 684.3-75.4 144l479 9.7z"/><path fill="#97845a" d="M633.7 538.9L516.5 437.7 173 485.8l202.3 353.6z"/><path fill="#170400" d="M830.6 902.6L379.3 786.4l-185.3 534h799z"/><path fill="#cea2b4" d="M510.2 301l159.5-104-34.6-88.5L525.7 120z"/><path fill="#1c2200" d="M86.6 758.7L33 693.5l217.4-132.3 86 363.3z"/><path fill="#f1ffff" d="M436.7 503.8l-2.4-90-102.1 129.4 66.6-26.2z"/><path d="M172.2 1320.4l-247.6-103.6 66.6-288.9 107.5 33z"/><path fill="#1d1e0e" d="M803.4 695l4.9 288.8L534.5 514 734.4-75.4z"/><path fill="#8d4a27" d="M578.7 1106.4l-74.4-366.2-41.8 353 58.8 148z"/><path fill="#e0dfc7" d="M77.3 941.5l93-56.4-7.9-33-75.8 33.5z"/><path fill="#8487a2" d="M822.9 519.4l20.4 268 82.7 71.5L868.6 582z"/><path fill="#8d5c55" d="M569 782.5l-298.1 2.4 177.5-212.5 357 291.8z"/><path fill="#311326" d="M327.8 285.5l63.7-72-356.5 87 77.3 24.4z"/><path fill="#9971c4" d="M783.5 415.3l7.3 20.4L1009 518v-92.4z"/><path d="M1009.1 493.6v703.7L899.7 672.6l-34.5-161z"/><path fill="#261d19" d="M707.1 381.8l-488.7 84.1L496 237.3l268 391.5z"/><path fill="#756a9d" d="M1009.1 144.4l-215.9 30.2L887.1 8.3 949.3 35z"/><path fill="#8076ad" d="M158 528.6l285.5-287.9-244.6 73L-18.5 479z"/><path fill="#7c7d92" d="M760.1 519.9l-219.3 56.4 118.7-107.5 31.6 71z"/><path fill="#090603" d="M1009.1 1200.7l-521.3 119.7 183.8-429 150.8 212z"/><path fill="#d476dc" d="M991.1 303.5L880.7 284l-69-38.4L964.4 283z"/><path fill="#4f5038" d="M465 778.6l-328.3 53-1.5 376.4 75.4 22.4z"/><path fill="#7b8372" d="M-75.4 746.5L181 829.7-75.4 607.9l261.2-67.1z"/><path fill="#9f5a93" d="M697.9 240.2l-570-59.3 270.9-42.3 47.2 70.5z"/><path fill="#110911" d="M837-74.9L690 31.6 535 74l158.5 53.5z"/><path fill="#39401c" d="M807.8 1004.8l201.3-75L911 857 537 588.6z"/><path fill="#987fab" d="M634.2 154.7l-130.4 48.6L546.1-53l20.5 179z"/><path fill="#83a65d" d="M256.8 520.9l-6.3 82.6 126-64.6-73-94z"/><path fill="#837fc9" d="M579.7 685.7l19.5 93.9 62.2 30.1-11.2-40.8z"/><path fill="#414426" d="M238.8 567.5l184.8 370.6-311.3-394.9 153.7-90z"/><path fill="#09000e" d="M785 212.5l-83.2-39.9 2.4 171.2 56 22.4z"/><path fill="#431303" d="M376 1030.5l128.3 289.9L467 752.8l-61.3 26.3z"/><path fill="#40472a" d="M446 534l-34.6 90.4L293.7 676l52.6-155.1z"/><path fill="#271d24" d="M182.9 206.7L175 323.4 37.9 310.8l228.6-73z"/><path fill="#6c4a5c" d="M462.5 341.4l3.9 508.2 108.4-204.2-31.6-218.9z"/><path fill="#655f94" d="M706.1 92l146.4-22.5-43.3-99.7L748 74.4z"/><path fill="#bbbeb4" d="M108 550l11.6-12.6 31.6 67.1-79.2-7.3z"/><path fill="#746b67" d="M187.7 874.4l56 79.3-143.5 7.3-57.4-35.5z"/><path fill="#806359" d="M541.8 993l14 43.9-87.5-23.9 22.4-123.5z"/><path fill="#1e0d1b" d="M441.6 251.4l-19-92.9 66.6-50.5 30.2 22.8z"/><path fill="#504b68" d="M284 177L80.7 140-31.6 96.9 361.4-36z"/><path fill="#7a516a" d="M603 181.9l28.3-80.7 67 119.6-249 97.3z"/><path fill="#211523" d="M608.9 509.2l141-159L550 286.4l-19.4 324.4z"/><path fill="#d9ddd4" d="M147.8 864.7l-2.9-7.8-69.5 33.6 3.9 47.6z"/><path fill="#434528" d="M21.4 688.6L228.6 604 55 607l-93-1z"/><path fill="#11090a" d="M377.4 988.7L371 1107l292.7 213.5H153.2z"/><path fill="#8687af" d="M259.7 497.5l-252-1.4-83-22.4 250.9-60.8z"/><path fill="#92929d" d="M613.7 500l-58.3 102 106.5-91.8h-50.1z"/><path fill="#a6624e" d="M530.1 804.9l-184.8-178 6.3 162.4 189.7-87z"/><path fill="#50281e" d="M484.9 674.5L320 735.3l11.7-22.8L476 637z"/><path fill="#323b10" d="M-75.4 733.4l252 116.7-54-3.9-74 71.5z"/><path fill="#351c16" d="M434.3 869.6l133.2-135.7 91.5 586.5-126.5-380.8z"/><path fill="#6f4265" d="M478 258.7L46.3 245.6l320 104 17 4z"/><path fill="#2a2d11" d="M589 600.1l254.3-16.5-67.1 223.2-167.8-81.2z"/><path fill="#aaa0a7" d="M518.4 633.2l-14.6-35-33.5-19h-48.7z"/><path fill="#1a1b10" d="M494.1 337L364.7 481l-76.8-2.5 185.8-147.8z"/><path fill="#4e4c3f" d="M902.6 768.4L728 763l153.2-55.4-88.5-37.4z"/><path fill="#221e1a" d="M84.1 746l278.2 185.3-86.6-171.7L186.3 554z"/><path fill="#d2c1b6" d="M606.5 164.4l-20 5.8-64.7 35.5 47.2-87.5z"/><path fill="#aaa1eb" d="M832.6 687.7l24.3-97.3 17.5 129.9-9.2-23z"/><path fill="#585379" d="M761.1 530.6l50.6 41.3 19-2.4 89-111.4z"/><path fill="#241424" d="M484.4 196.5l-176 78.8-77.9 30.6 41.4-40.4z"/><path fill="#3e425c" d="M951.7 956.1l57.4-181.9-90 367.2-129.3-57.9z"/><path fill="#6e4a92" d="M910.4 274.8L775.2 384.7l-53-13.1 287-59.4z"/><path fill="#bf939b" d="M436.2 634.7l-50 9.2-42.9 23.3-.4 32.6z"/><path fill="#ad5caa" d="M913.8 150.3l-10.2 89 24.3-76.4 81.2-144z"/><path fill="#778046" d="M254.3 419.7L285 783l22.4 28.2 10.7 52z"/><path fill="#09070d" d="M555.4 832.6l-44.3-21L874 1320.5l-117.2-337z"/><path fill="#201524" d="M814.6 357.5L961 325.8l-51 36 20.8 60.8z"/><path fill="#1d0f1d" d="M535.4-75.4h37L464 74.4l45.2 43.8z"/><path fill="#312f3b" d="M494.1 472.7l-37 50.6-74.4 61.8-22.8-21z"/><path fill="#211e30" d="M1009.1 951.7V876l-227.6 233.9L756.2 888z"/><path fill="#d5d8e2" d="M415.3 444.5l29.2 75.9 6.8-46.7-64.2 34z"/><path fill="#070b09" d="M946.9 801.5L863.7 535l29.2-25.3 116.2 13.1z"/><path fill="#31262f" d="M528.2 317l171.6 55.5L251 385.7l73.5-52z"/><path fill="#5c3a41" d="M494.1 343.8L696.4 252l-123 12.7L426 287.4z"/><path fill="#715d66" d="M516 564.6l-67.1-187.2 128.9 88.5-61.8 74z"/><path fill="#765ea2" d="M172.2 346.8l153.6 4.8-64.6 18.5-30.7-138.6z"/><path fill="#985c96" d="M186.3 213.5l156 14.6 60.9-63.7-303 1.4z"/><path fill="#4d5331" d="M1009.1 893.4l-300 2-88.5-59.4 85-61.3z"/><path fill="#686a67" d="M946.9 878.8L804.4 782l48.1-79.7-56.9 21.8z"/><path fill="#9b6363" d="M457.6 788.8l1.5-2.4 5.3 48.1 84.7-82.6z"/><path fill="#151519" d="M3 1128.3l109.3-211 14.1 39.3-34 360.4z"/><path fill="#96461e" d="M460 720.3l-62.2-47.7-22.4 42.3 7.3 75.4z"/><path fill="#3e3f2c" d="M742.1 780.6l174.1-52L533 882.1l453.3-89z"/><path fill="#1b121b" d="M529.1 44.7l61.3-36.4-28.2 103.6 182.9-55z"/><path fill="#3f2116" d="M518.4 1165.2l-10.2-11.6 74.4-152.3 156.1 200z"/><path fill="#625282" d="M863.2 256.8l-94.8-108.5L935.7 44.7 784.4 263.6z"/><path fill="#634e7a" d="M680.9 186.7L676 308.8l-9.2-13.6-53-196.5z"/><path fill="#654780" d="M768 444l156-27.2-133.2-31.1L887 530z"/><path fill="#8580a4" d="M888.5 857.4l-13.1-80.2-64.7 1.9 45.2-25.3z"/><path fill="#211923" d="M652.2 566l8.7-322.8L492.2 370 761 302.5z"/><path fill="#525231" d="M244.1 880.3l-148.8-20-170.7-97.7 176 28.7z"/><path fill="#221f24" d="M96.8 838.4l51.5-121.6L36.5 978l7.3-168.3z"/><path fill="#ab8a87" d="M542.3 270.9l-42.8-104.6-11.7 32.1 91 39z"/><path fill="#140c12" d="M80.2 319l77.4-40.8 41.8 20.9-8.3 22.4z"/><path fill="#3c3644" d="M435.3 472.2l26.2 32.1 58.4 122-80.7-313.1z"/><path fill="#261f25" d="M850.6 97.8l-7.3-24.9L655 129.4l49.1 31.6z"/><path fill="#4f384f" d="M656.5 813.1l-128.8-65.6 2-279.7L606 897.3z"/><path fill="#451b13" d="M417.8 768l126.9 126.4-124-53.5L512 735.3z"/><path fill="#382f47" d="M560.2 581.6l-207.1-61.2 171.6 85 106.6-147.8z"/><path fill="#53527d" d="M13.6 440.6l84.2-164.4-140.6 59.9 266.5 41.8z"/><path fill="#34351c" d="M743.1 654.1l-164.9-90.4L676 716.8l207.2-5.8z"/><path fill="#130a16" d="M831.6 292.3l-36 24.8-3.4 45.7 3 10.7z"/><path fill="#242b42" d="M196.5-75.4l29.2 176.6-62.3 9.2-1.5-63.7z"/><path fill="#6e66b7" d="M93.4 326.8l28.2 52.5 172.1-24.8-15.5-31.6z"/><path fill="#8864a8" d="M871.5 422.6l-78.3 19.5L979 459l-11.7 102.6z"/><path fill="#cdd0d1" d="M363.8 518.4l62.7-2 26.3-13-41.9-63.3z"/><path fill="#4e4523" d="M317.6 841.8l96.3-82.6 4.3 63.7-37 112.8z"/><path fill="#50564d" d="M132.3 1054.4l109-266-22 298 118.2-246z"/><path fill="#6c6f90" d="M-22.4 635.1l219.8-155-272.8 83.6 195 108z"/><path fill="#796b97" d="M662.4 837l-104.1-85.6 9.7-4 91.5 6.9z"/><path fill="#676288" d="M932.3 1067.5l76.8 24.3-108.4-92 63.7-75.3z"/><path fill="#836383" d="M283.5 104.6l-6.8 134.2 165.4-40.4-114.3-38.9z"/><path fill="#7d5282" d="M410 193.6L275.7 175l-351-115.8 345.2 91.5z"/><path fill="#8b996d" d="M428.5 477L269.9 607.5l20.4-152.7 90.5 63.2z"/><path fill="#692713" d="M526.2 1085L414 977l101.6 260.2 67.6-130.3z"/><path fill="#211c19" d="M241.7 706.1l-36.5 134.3L-38.9 624l194.5 72.4z"/><path fill="#211d1e" d="M769.4 779.6l17.5-325.4 35.5 11.7L706 754.3z"/><path fill="#74716b" d="M116.7 981l-33.5-17.1-22.4-50 14-30.7z"/><path fill="#634e6b" d="M203.8 402.7L476 233.9l82.7-285L516 241.7z"/><path fill="#7e4977" d="M-26.7 137.1l252.4 67.6L113.8 267l-189.2 30.6z"/><path fill="#433956" d="M936.2 269.4L639 562.2l100.7 20.4-79.3-58.8z"/><path fill="#b468b7" d="M1009.1 329.2l-227-89.4L994 301l-66.2-180.9z"/><path fill="#30242f" d="M499.5 98.2l-74 32.1-123-14 53-33.1z"/><path fill="#d7d6d1" d="M92.4 901.7l64.7-22-32.6-14.5-58.4 35z"/><path fill="#180f1a" d="M612.3 411.4l212-25.3L607 468.8 497.5 335.1z"/><path fill="#481922" d="M637.6 809.7l-47.7 72 3-38.4-62.8-69.6z"/><path fill="#27232d" d="M902.6 202.3l-53 61.8 60.8-144 9.2 18z"/><path fill="#6f6874" d="M-47.2 762l126-18.4L196 879.3 179.5 813z"/></g></g></svg>