<svg xmlns="http://www.w3.org/2000/svg" viewBox="0 0 3024 4032"><defs/><filter id="prefix__a"><feGaussianBlur stdDeviation="2"/></filter><rect width="100%" height="100%" fill="#513d37"/><g filter="url(#prefix__a)"><g fill-opacity=".5"><path fill="#f1b77f" d="M3268.1 4276.1H2115.2L940.2-4.7l2219.3 2748.3z"/><path fill="#efd0c1" d="M1195.4 1442.7l-89.7-1686.8h552.8l28.3 1696.3z"/><path d="M1825.4 1560.8l-178-1606.5L2735.9-244l-395.4 1562.4z"/><path fill="#ffff98" d="M3061.8 4276.1h-497.7l94.5-1619 412.7-430z"/><path fill="#ffbd65" d="M-244.1 3060.2l726 721.4 2786.2 133.8L64.6 4276.1z"/><path fill="#f89267" d="M1154.5 2183l-359.1 937-370.1-92.9L817.4 1353z"/><path fill="#1a0500" d="M2929.5-244.1L2342 2346.7l-837.9-398.4 1764 477.2z"/><path fill="#efdbc8" d="M2691.7 72.4l190.6-170-195.4 974.9-341.7 1340.3z"/><path fill="#480d07" d="M2761 3828.8l-313.4-11 252-1167-962.4 987.5z"/><path fill="#6d2b0d" d="M2143.6 3417.8L252 2885.3 72.4 3861.9l839.5 178z"/><path fill="#000508" d="M723 1004.8l422 45.7L1132.4-244 178-220.5z"/><path fill="#68574e" d="M2201.9 2436.5l-527.7 834.8L450.5 1154.5l1239.5 411z"/><path fill="#380900" d="M-209.5 2154.6l527.6-1134 452 1042.7-497.6 1156z"/><path fill="#ffdf80" d="M3005.1 4276.1l263-1948.3-735.5 77.2 415.8 1808.1z"/><path fill="#ffae51" d="M1614.4 4276.1h236.2l157.5-505.6-1077.3 23.7z"/><path fill="#b59181" d="M1571.8 108.7l291.4 2027 477.2-642.6-1631.7 58.3z"/><path fill="#4d2926" d="M2676 3058.6l-77.2 198.5-808-2627.1L2572 2562.5z"/><path fill="#b8aea6" d="M1123 488.3l-241-80.4-326 168.6 746.5-6.3z"/><path d="M2652.3-81.9L1690-80.3l144.9 1638 562.2-502.5z"/><path fill="#fff0bd" d="M-244.1 3791l1360.8 364L-145 4276l200-934z"/><path fill="#7c6357" d="M2953.1 1460l-661.5-272.4-382.7 1660 889.9-1926.2z"/><path fill="#a88b6f" d="M104 620.5l-148.1 686.8 327.6-130.8-9.5 74z"/><path fill="#cc302b" d="M559.1 869.4l285.1 1368.7-546.5 935.5L615.8 2087z"/><path fill="#e0c89b" d="M833.2 2058.5L710.3 1709l417.4 343.3-97.7 138.6z"/><path fill="#7b2f0b" d="M1960.9 2666.5L3268 1634.9v836.3l-1037.9-247.3z"/><path fill="#ffa681" d="M819 2318.4l-272.5 322.9-15.7 411L776.5 2698z"/><path fill="#331205" d="M664.7 4178.5l-471-2335.8L225.2 3662l1000.2 242.5z"/><path fill="#37251c" d="M1549.8 2814.5L880.4 2972l997 96.1-86.6-841z"/><path d="M2986.2-244.1l201.6 1267.8-535.5-25.2L2885.4-66z"/><path fill="#f1a08e" d="M2324.7 2406.6l36.2 471-527.6-146.5 590.6-349.7z"/><path fill="#ffcd7d" d="M2924.8 4276.1l-411.1-812.7 671-1447.4-162.3 2260.1z"/><path fill="#6c5f59" d="M1938.8 1571.8l-768.6 1603.4 247.3-1708.9 1463.2-108.7z"/><path d="M428.4 2598.8l-269.3 53.5-20.5-1145 226.8 754.4z"/><path fill="#ffd0a2" d="M2219.2 2230.2l-404.8-348 343.3-151.3-420.5-102.3z"/><path fill="#787169" d="M2526.3 584.3l118.1 354.4-96 513.5-152.8-168.6z"/><path fill="#e2cb8c" d="M532.3 3361L849 2746.9l78.8 53.6 34.6 3.1z"/><path fill="#ffd67b" d="M3019.3 4125l-700.9-346.6-275.6 282L2764 4276z"/><path fill="#eddbd1" d="M2664.9 886.7l26.8-781.2 189-349.6-53.6 359z"/><path fill="#ecb778" d="M2318.4 1839.6l272.5-537-245.7 885L3005 3210z"/><path fill="#b89064" d="M905.6 3343.7l256.7-104-53.5-302.3-78.8 173.2z"/><path fill="#513224" d="M2712.1 3742.2l-337-315-763.9 94.5L2646 3865.1z"/><path d="M31.5 574.9l-275.6 897.7L-116.6-64.6 204.8-244z"/><path fill="#341704" d="M2405 2112l182.7-841 680.4 278.8-537 863.1z"/><path fill="#a5725d" d="M2321.6 3331.1l-212.7 69.3-768.6-297.6 995.4-119.8z"/><path fill="#ffb568" d="M67.7 4203.7L294.5 3802l677.3 474.1 867.8-450.4z"/><path fill="#f1e4d7" d="M1119.8 321.3l171.7 36.2 330.8-29.9L1219 204.7z"/><path fill="#6f6847" d="M430 1647.4l-198.5-75.6L354.4 2287l110.2-297.7z"/><path fill="#5c3125" d="M2666.5 3054L2416 3828.7l-37.8-537-93-512z"/><path fill="#ffdd96" d="M2663.3 2356.2l604.8 318.2-724.5 949.7 133.9-738.7z"/><path fill="#4d3e38" d="M1808.1 1263.2l-88.2 811 546.5 39.4-877.3-174.8z"/><path fill="#451e0d" d="M2446 4125l-272.5-389.1 12.6 209.5-343.3-956z"/><path fill="#d0af92" d="M1156 198.4l8 1304.2 655.1 44-510.3-277.1z"/><path fill="#fda860" d="M261.5 3553.2L28.4 3324.8-244.1 3728v127.6z"/><path fill="#694539" d="M2573.6 2589.3l-337.1-880.4-507.2 1582.8 143.4-1277.3z"/><path fill="#0b0502" d="M1023.8 187.4L1291.5-244 390.6 11l30 510.3z"/><path fill="#898a81" d="M2787.8 1023.8l-121.3 333.9-12.6 137 189-256.8z"/><path fill="#834233" d="M962.3 1817.6l118.1-513.5-666.2-357.5 168.5 852z"/><path fill="#652000" d="M-148 3219.3l-96.1-423.7 1116.7 524.5-604.8 212.6z"/><path fill="#612c11" d="M1494.7 3665l300.8 611.1-291.4-442.6 899.4-261.4z"/><path fill="#c6c9c6" d="M1746.7 1061.6l45.7 308.7-338.7-500.9 89.8 135.5z"/><path fill="#090100" d="M571.7 612.7l22 135.4 434.8 408 130.7-505.6z"/><path fill="#ffb052" d="M2975.2 3772.1l119.7-910.3-145 185.8-382.6 1042.7z"/><path fill="#0b0501" d="M1660 252l45.7 652 590.7 425.3L2690-97.7z"/><path fill="#2a1609" d="M1171.8 2482.2l74 653.6-315-467.8-56.7-14.1z"/><path fill="#d0b18b" d="M2179.8 3274.4l-50.4 64.6-277.2-779.6 203.2 877.2z"/><path fill="#381707" d="M511.9 3597.3L337 3521.7l978 113.4-25.2 223.6z"/><path fill="#d15e5b" d="M2299.5 2901.1l187.4-162.2-493-1130.8 330.8 1378.1z"/><path fill="#5b4b42" d="M2296.4 2066.4l-234.7-121.3 105.5-85 491.4-1015.9z"/><path fill="#a6734a" d="M89.8 1738.8l4.7-567 37.8 198.5-15.8 957.6z"/><path fill="#cdc9c5" d="M540.2 3906l56.7-44.1-39.4-91.4-111.8 48.9z"/><path fill="#793e24" d="M1943.6 3857.2l143.3-392.2-351.3-225.2-1362.3 149.6z"/><path fill="#fff" d="M59.8 3907.6l-304-250.5 86.7 619 389-91.3z"/><path fill="#806e62" d="M2068 2487l-943.4-584.4 324.4 719.8 385.9-472.5z"/><path fill="#755c4a" d="M143.3 3132.7l-92.9-208-212.6 140.3 326-565.5z"/><path fill="#6e310c" d="M2664.9 2116.8l-100.8 274 395.3-37.7-31.5-701z"/><path fill="#ffcc7a" d="M2485.4 3873l-278.8-244.2 261.4 493 800.1-127.6z"/><path fill="#6e3616" d="M2027 3887.1l586-719.8-575 795.4-337 313.4z"/><path fill="#d9d5cc" d="M1277.3 541.8l-97.6 86.6 518.1 59.9-201.6-99.3z"/><path fill="#594d4e" d="M34.6 3923.3l63-222 67.8-162.3 277.2 228.4z"/><path fill="#ecb991" d="M1882.1 1608l-48.8 25.3-94.5 356 379.6-211.1z"/><path fill="#030601" d="M121.3 1472.6l47.2 989.1 97.7-644.1 66.1-639.5z"/><path fill="#2a1d14" d="M1217.5 1908.9l-225.3 69.3 100.9-441 85 33z"/><path fill="#2d2f3f" d="M1129.3 64.6L387.5 623.7 830 448.9l313.4-36.2z"/><path fill="#5c372c" d="M804.8 2253.8l524.5-162.2-447.3 44.1-423.7-474z"/><path fill="#926f5f" d="M1669.5 1011.2l-330.8-219 374.9 19-573.3 215.7z"/><path fill="#ffbd69" d="M1423.8 3764.3l385.9 511.8 116.5-340.2-1186 340.2z"/><path fill="#33241a" d="M1299.4 2575.1l686.7 52-839.5 25.2-110.3-378z"/><path fill="#ffd990" d="M2458.6 3587.9l231.5 6.2-67.7-1206.4 346.5 677.3z"/><path fill="#0d0906" d="M2523.1 1505.7l745-289.8-477.2 552.8 477.2 507.2z"/><path fill="#30251b" d="M-239.4 1067.8L0 546.5l471 975-231.6-924.6z"/><path fill="#190f0a" d="M-244.1 3243l475.6-105.6 12.6-190.6-321.3-17.3z"/><path fill="#d7c7c0" d="M1301 530.8l59.8 3.1-559.1-41-9.5-33z"/><path fill="#746c64" d="M2583 1319.8l-126-696.1 160.6 228.4-507.1 661.5z"/><path fill="#ceba95" d="M935.5 2137.3L1208 1997l-469.3-47.3 333.9 365.4z"/><path fill="#a76d69" d="M1655.3 1444.3l494.6 6.3 75.6 277.2-53.6 75.6z"/><path fill="#49362b" d="M1697.8 2258.6l-39.3 245.7 540.2 118-345-207.8z"/><path fill="#845e4d" d="M1186 828.5l211-19-351.2-178 666.2 53.6z"/><path fill="#c9b6a0" d="M149.6 1082L178 888.3H-94.5l151.2-7.9z"/><path fill="#493f32" d="M923 2061.7l70.8-61.4-129.1-212.7 160.6-1226.9z"/><path fill="#ffa940" d="M1984.5 3973.7l-30-261.4 89.9-30 36.2-1.5z"/><path fill="#553f31" d="M1916.8 1390.7l-19 300.9-61.4-726.1 176.4-82z"/><path fill="#332a24" d="M1479 1482l275.6 88.3-797-30 606.4-22z"/><path fill="#4b392d" d="M2395.6 1693.1l-165.4 452 417.4 647.4-426.9-1049z"/><path fill="#d6a889" d="M2298 2414.5l3 439.4-316.5-86.6-130.7 25.2z"/><path fill="#412b1d" d="M1852.2 2972L1575 2698l250.4 346.5 346.5 626.8z"/><path fill="#6e5c4e" d="M682 4276.1l-175-798.5-344.7 61.4 507.2-89.7z"/><path fill="#a5734c" d="M102.4 2079l48.8 710.3-7.9-808 115-270.9z"/><path fill="#d5ac94" d="M2430.2 1524.6l75.6-42.5-88.2 656.8-63-206.4z"/><path fill="#c15145" d="M625.3 1664.8l119.7-460-264.6-59.8L863 1860z"/><path fill="#867568" d="M1699.4 2658.6l-496.1 45.7 11 116.5 1153-152.7z"/><path fill="#787067" d="M2696.4-244.1L2614.5 274l-154.4 893L2743.6 31.6z"/><path fill="#65443c" d="M2353 3406.7l-18.9 401.7-430 281.9 460-393.8z"/><path fill="#8f4940" d="M2250.7 3444.5l-22 345-141.8-945 472.5 211z"/><path fill="#8a1c0c" d="M475.6 2956.3l141.8-962.4-316.6 990.7 458.4 326z"/><path fill="#643f23" d="M1116.7 2412.9l-775 1055.2 571.8-998.5 58.3 765.4z"/><path fill="#c3713c" d="M105.5 182.7L234.7-96.1 74 433.1l-1.5 1.6z"/><path fill="#e2dcd2" d="M1444.3 1436.4l252 15.8-452-85.1-50.5 96z"/><path fill="#f5e5d4" d="M1614.4 144.9l-448.9 7.9 395.3 42.5 70.9-15.8z"/><path fill="#76736b" d="M735.5 1004.8l107.1 41L504 745l248.8 311.8z"/><path fill="#e5caa2" d="M148 3909.1l368.6 367h-33l-151.3-439.4z"/><path fill="#020504" d="M3268.1 1097.8V442.6l-315-469.4-264.6 830z"/><path fill="#fbb864" d="M2888.6 2490l322.8-94.4L2517 2353l179.5 631.5z"/><path fill="#b1a188" d="M1537.2 2077.4l234.7 143.3 168.5 108.7-264.6-85z"/><path fill="#0b0605" d="M2412.9 1981.3l322.9 61.5 37.8-93-247.3-256.7z"/><path fill="#9b6b51" d="M1127.7 1152.9l491.4 174.8-757.6 3.2 864.7-140.2z"/><path fill="#fbdaac" d="M2137.3 2030.2l-22 45.7-275.7-111.9-17.3-86.6z"/><path fill="#340d07" d="M2505.8 2931l-85-33-118.2-26.8 33.1 157.5z"/><path fill="#595047" d="M396.9 122.8l22-367L245.8 50.5l219 748.1z"/><path fill="#000202" d="M2554.6 606.4l77.2-515-200-157.6 91.3 760.8z"/><path fill="#4a1b0b" d="M439.4 3558l423.7-373.4 332.3-344.9-270.9 33.1z"/></g></g></svg>