<svg xmlns="http://www.w3.org/2000/svg" viewBox="0 0 2472 3296"><defs/><filter id="a"><feGaussianBlur stdDeviation="2"/></filter><rect width="100%" height="100%" fill="#764943"/><g filter="url(#a)"><g fill-opacity=".5"><path fill="#fff" d="M-199.6 33.5l186.7 1899 2684.5 184.2L2468-199.7z"/><path d="M2456.6 3494.3l215-875.5-2871.2-157.1L-81 3463.4z"/><path fill="#fbdecf" d="M1527 2672.8l379.8-1062.1 285.8-1810.3L907.6 2745z"/><path d="M1118.8 3495.6H-118.5L439 1888.8l332.2 6.4z"/><path fill="#feffff" d="M1744.6-199.6l927 166.1v2790L2253 2389.6z"/><path fill="#000314" d="M2558.3 3413.2l-494.4-1596.5-261.4-50.3-356.6 1501.3z"/><path fill="#8a4b36" d="M813.7 378.5l475 728.8-290.9 1911.9L534.3 1151z"/><path fill="#cfe8ed" d="M-77.3 2294.3l388.9 9L652.8 869.1 373.4 516.3z"/><path fill="#575f5a" d="M2143.7 1094.4l-182.8 712-54.1-525.3L9 1147z"/><path fill="#cc8b79" d="M1175.5 2927.8l571.6-566.5-531.7-1121.4-395.3 1330z"/><path fill="#ecece9" d="M1306.8-199.6l208.6 1129.2 994 404.2 30.8-927z"/><path fill="#000e1a" d="M2034.3 1838.6l-145.5-63.1-182.9 243.3 69.6 1476.8z"/><path fill="#00000a" d="M-199.6 3495.6L-21.9 2714l475.1-455.8L1673.8 3408z"/><path fill="#fff" d="M2560.8-190.6L2671.6 2033l-484.1-237 10.3-733.8z"/><path fill="#fffdf3" d="M1725.3 2069l-334.8 182.8 349-838.1 204.6-16.8z"/><path fill="#00000f" d="M815 2412.8l-655.4 316.7L470 1901.6l233-38.6z"/><path fill="#d18460" d="M1160 262.6L852.3 445.5l158.4 666.9 677.2-637.3z"/><path fill="#493835" d="M766 534.3L580.8 942.5l793 279.3-794.3 139z"/><path fill="#c8cacf" d="M324.4 2212l-61.8 5-462.2 82.5L691.4 681z"/><path fill="#001014" d="M1507.7 2593l-488 715.9 1502.5 186.7 36-946.3z"/><path fill="#99a4a1" d="M2154 2222.2l221.4 458.4 33.5-700.4-557.5-655.4z"/><path fill="#b67465" d="M1135.6 2948.4l115.9-907.7 330.8-224L705.5 1433z"/><path fill="#bec2c5" d="M660.5 1824.4l-860 364.3V215l760.9 927z"/><path fill="#f2b49e" d="M1283.6 1165.2L1755 778.9l-89-359.2L856.2 891z"/><path fill="#4a2b26" d="M591 1586.2l1.2-437.8 159.7 18-78.5 490.6z"/><path fill="#ffd3ca" d="M2432 1857.9l-1246.2-229.2 39.9-333.5 297.4 266.5z"/><path fill="#b5bbb6" d="M1623.5-199.6H337.3L-5 1868.2 752 588.4z"/><path fill="#896149" d="M1151 251l237 50.3-779 539.4 222.7-359.2z"/><path fill="#314554" d="M2423 2698.6l-686.2-121 170 209.8 121-925.7z"/><path fill="#a17a71" d="M2166.9 1733l-25.8-690.1-270.4-20.6 333.5-56.7z"/><path fill="#58463e" d="M1079 2858.3L854.8 2136l397.8 226.6L627 2493.9z"/><path fill="#c6c7c4" d="M1623.5 538.2L634.7-199.6l1567 47.7-139.1 905z"/><path fill="#dcad9c" d="M1546.3 1196l-246 920.7-459.6-13 884.5 275.6z"/><path fill="#211016" d="M1230.8 1173l-72-27.1-90.2 285.8 10.3 101.7z"/><path fill="#3d3d3e" d="M-199.6 1675l309-133.9-16.7 148.1-292.3-59.2z"/><path fill="#fffffd" d="M1857.9 1654.4l-152-995.2 199.6 255-168.7 396.5z"/><path fill="#da9b88" d="M1005.5 1443.3L954 2056l346.4 230.5L663 1496.1z"/><path fill="#061220" d="M1684 2447.5l404.3-486.6-41.2-61.8-240.7-100.5z"/><path fill="#fdffff" d="M2540.2 690.1l-410.7 1180.6 542-32.1-118.4-390.2z"/><path fill="#a45957" d="M1503.8 1939l-455.8 85L945 710.6l238.2 1028.7z"/><path fill="#000100" d="M-114.6 3424.8l-85-766.1 558.8-140.3L730 3319.1z"/><path fill="#cccfd0" d="M619.3 864l-87.6 261.3-406.8 68.2 539.5-47.6z"/><path fill="#c8cbd0" d="M561.4 1276l-761 1144.5L479 1883.6l189.2-10.3z"/><path fill="#82857e" d="M2040.7 1081.5l-284.5 99.1 334.7 555-1.3-708.2z"/><path fill="#7e544c" d="M1742 1116.3l-544.6 20.6 36 160.9 285.8-324.5z"/><path fill="#00101b" d="M553.6 1884.9l-352.8 661.8 865.2 948.9-388.8-1619.7z"/><path fill="#000307" d="M1915.8 3336l-300-721-372 334.7L1402 3399z"/><path fill="#fffffa" d="M1930 1169l-239.5 516.3-74.7 431.4 179-267.8z"/><path fill="#cb998d" d="M1285 1032.6l468.6 404.3-509.9-4 173.8-499.5z"/><path fill="#5a5b3d" d="M-199.6 2293l396.6-48.9 46.3 303.9-442.9 65.6z"/><path fill="#96907e" d="M-143 485.4L717.2 475l-154.5-77.3-718.4-50.2z"/><path fill="#32263e" d="M1914.5 1238.6l-152-20.6 116-101.7 38.6 160.9z"/><path fill="#aeafa8" d="M1926.1 1529.5L2343.3 2557l303.8-499.6-840.7-357.9z"/><path fill="#000002" d="M668.2 1140.7L597.4 1339l-27-157 244.6-46.4z"/><path fill="#c2a496" d="M1072.5 2911l234.3-441.6 423.6-475-21.9 285.8z"/><path fill="#f3f9fb" d="M2182.3 1031.3l489.3 1893.9L2454 549.8l-627 378.5z"/><path fill="#683c2f" d="M1734.3 2387l-273 367-203.4 157-141.6-28.3z"/><path fill="#473233" d="M1241.2 1205.1l124.8 189.3-60.5-224 145.5-45.1z"/><path fill="#6b4a40" d="M842 2291.8L625.7 2566l310.3-61.8 412 744.2z"/><path fill="#c1846e" d="M882 1131.7l551-816.3-364.4 95.3L695.3 1066z"/><path fill="#eeeee5" d="M2137.3 1787l-453.3-16.7 391.4-61.8 76-737.7z"/><path fill="#8d8672" d="M302.6 2299.5L-98 2217l261.4 123.6 58 182.8z"/><path fill="#a67668" d="M1162.6 2877.6l-167.4-237-121-337.3 439 168.7z"/><path fill="#0a1321" d="M385 1944.1l-49 467.4 313-428.7-199.6-85z"/><path fill="#92645d" d="M2181 1654.4l-1.3 219-25.7-137.8 20.6-793.1z"/><path fill="#fec5bc" d="M1628.7 1436.8l96.5 436.5-494.4-632.1 36.1 473.7z"/><path fill="#899088" d="M2066.4 1689.2l-207.3 36 134-642.4 99 291z"/><path fill="#4e5560" d="M2255.7 2326.5L2351 2642l-416-458.4 213.7-132.6z"/><path fill="#856551" d="M1362.2 2354.8l-561.4-65.6 112 38.6 670.8-72.1z"/><path fill="#6c4e3f" d="M710.7 618l40 615.4 64.3 59.2-197-421z"/><path fill="#8d6051" d="M748 1129.1l-150.6 449.4 397.8 718.4L748 1675z"/><path fill="#1d2631" d="M1691.8 2747.5l889.6 60.5 13-258.8-801-43.7z"/><path fill="#ffdece" d="M1621 806l158.3 413.3-10.3-607.7-181.5-182.9z"/><path fill="#031016" d="M1179.3 3495.6H238.2l570.3-936 341.2 418.4z"/><path fill="#9ba19a" d="M346.3 51.5l-412 728.7 81.2-979.8 701.6 300z"/><path fill="#141018" d="M1238.6 1239.9l-204.7-114.6-292.3 2.5 573 28.4z"/><path fill="#bfbdba" d="M1229.6-199.6L381 416l722.3-122.3 997.8-224z"/><path fill="#d3b3a2" d="M1121.4 2451.4l579.4-27-16.7-415.9-107 291z"/><path fill="#f6e8e0" d="M1843.7 1206.4l-446.8 199.5 517.6-60.5-359.2 791.8z"/><path fill="#c2c1c3" d="M673.4 648.9L466 1771.6l-195.7 498.3-470-73.4z"/><path fill="#dbad9f" d="M1644.1 1306.8l5.2-739-112 1497.4-235.6-907.7z"/><path fill="#ac887d" d="M1842.4 1384l-173.8 40 288.4-149.4-148-10.3z"/><path fill="#e2e2e4" d="M2634.2 543.3L1791 1012l610.3-972L2539-177.8z"/><path fill="#ab8378" d="M732.6 1317.1l394-103-79.9 203.4-361.8-54z"/><path fill="#bfb9b6" d="M-199.6 920.6l296.2 681 535.6-906.3L1254 100.4z"/><path fill="#653b37" d="M936 1453.6l-19.3 9-249.8-33.5 614.2-20.6z"/><path fill="#d09886" d="M807.3 974.6l627-685-285.8 851.1 607.7-64.4z"/><path fill="#3b2c19" d="M67 2580.2l-266.6-132.7 310.3-96.5 54.1 79.8z"/><path fill="#b4aba5" d="M2352.3 2443.7l82.4-555-336-36-98-78.5z"/><path fill="#8f5646" d="M1097 1994.3l-95.3-136.4-90.2-73.4 247.3-161z"/><path fill="#f5f9f9" d="M2204.2 1874.6L2193.9 636l297.4 1174.2-497 22z"/><path fill="#b6846f" d="M797 1998.2l464.8 472.5-297.5-620.6 530.5-118.4z"/><path fill="#bec1b9" d="M2671.6 2594.3l-282-517.6 191.8 29.7L2279 2499z"/><path fill="#977774" d="M1216.7 1335.1l275.5 125 472.5-96.6-479 55.3z"/><path fill="#422e28" d="M988.8 2340.7l-222.7-200.9-52.8-136.5 387.5 367z"/><path fill="#e3beb2" d="M1581 2018.8l94 97.9-334.7 131.3 36-327z"/><path fill="#ca7e76" d="M1000.4 2294.3l363-694 139.1 304-513.7 396.5z"/><path fill="#010e12" d="M2083.2 2715.3l133.9 780.3 454.5-184.2-410.8-759.6z"/><path fill="#000514" d="M690.1 1874.6l108.1 320.6-110.7 215L416 1928.7z"/><path fill="#262d35" d="M2052.3 1841.1l24.4 869 65.7 609-260-963z"/><path fill="#fafffc" d="M1712.4 1430.4l20.6 58-64.4 706.8 203.4-815z"/><path fill="#0c060f" d="M593.5 1234.7l37.4 149.4 20.6-180.3 88.8 67z"/><path fill="#81574f" d="M654 1094.4l399.2-5.2-6.5-63-81-33.5z"/><path fill="#d49687" d="M764.8 1447.2l173.8 25.7L1048 1666l-225.3 155.8z"/><path fill="#000302" d="M-199.6 2666.4l41.2 829.2 755.8-271.7-240.8-709.4z"/><path fill="#f7fbf3" d="M1618.4 1130.4l243.3-46.3-104.3-439-29.6 500.8z"/><path fill="#66796a" d="M1538.6 1295.2l34.7-105.5 83.7-91.5-251-6.4z"/><path fill="#916454" d="M2043.3 1017.1l-64.4 14.2-148-27 128.7-5.2z"/><path fill="#d5c4b6" d="M1386.6 475l686.3 5.2 345 101.8-809.8-11.6z"/><path fill="#bb4352" d="M1057 2015l446.8-122.4-382.4-3.8-49 18z"/><path fill="#e6dfd5" d="M2102.5 1054.5l-19.3 222.7 72 225.3-2.5-374.7z"/><path fill="#cbd1d5" d="M427.5 1848.8L690 1827l-2.6-126.2-197-127.5z"/><path fill="#a57669" d="M1100.8 2872.4h28.3l557.5-424.9-713.3 332.2z"/><path fill="#444e4e" d="M1266.9 2998.6l-67 162.2-6.4-78.5 40-123.6z"/><path fill="#6b6a6a" d="M-199.6 1678.9l33.5-198.3 300 126.2-29.6 70.8z"/><path fill="#8b644f" d="M994 346.3L719.7 906.4l-73.4-171.2 619.3-482.9z"/><path fill="#53505c" d="M1877.2 1207.7L1823 1227l-34.8-149.4 162.3 184.2z"/><path fill="#c1bec3" d="M211.2 1791l412-489.3-822.8-253.7 106.9 134z"/><path fill="#e7a397" d="M1282.3 1372.5L1115 1584.9l603.8 85-517.6 51.5z"/><path fill="#875e4e" d="M1158.8 2384.4l-399.2-348.9-145.5-605 194.4 520z"/></g></g></svg>