<svg xmlns="http://www.w3.org/2000/svg" viewBox="0 0 3024 4032"><defs/><filter id="a"><feGaussianBlur stdDeviation="2"/></filter><rect width="100%" height="100%" fill="#493631"/><g filter="url(#a)"><g fill-opacity=".5"><path fill="#ffe7c2" d="M-138.6 1135.6l-105.5 1575 3069.7-311.9L3268 1069.4z"/><path fill="#fff" d="M277.2-122.9l299.3 1562.5-820.6 338.6V-75.6zM3065 2105.8l-30-2350-107 14.2-348.2 1535.7z"/><path d="M282 475.6L2290-244l685.2 3096.4-841-1675.8z"/><path fill="#fffdf5" d="M1348.2 1797l727.7-730.7 552.8 1296.2-866.3 105.5z"/><path fill="#ffea9b" d="M-99.2 4276.1h797l-942-1058.4L211 2145.2z"/><path fill="#080000" d="M2200.3 222L363.8-244l217.4 1798.6h540.2z"/><path fill="#a67039" d="M-91.3 3307.5l674-2001.8 2090 1710.4-436.2 149.7z"/><path fill="#fff7ea" d="M-244.1 1019l801.6 280.4-296-1431.7-505.6-111.8z"/><path fill="#160000" d="M444.1 3298l2024-129.1-675.7 1107.2-828.5-201.6z"/><path fill="#fff6f1" d="M3009.8-244.1l-160.6 420.5-200 946.6 619 1653.7z"/><path fill="#4e3837" d="M2838.1 2841.3l83.5 133.9 346.5-707.2-1121.4-1238z"/><path fill="#ff9a55" d="M-244.1 1554.5l671 165.4-299.3 623.7-67.7 981.2z"/><path fill="#c6dadd" d="M1948.3 1584.4l-689.9-34.6 349.7 916.6 411-31.5z"/><path fill="#16110f" d="M439.4 874.1L2751.5-143.3l-230 1916.8-297.6-601.7z"/><path fill="#9b5e44" d="M721.3 1126.1l932.5-20.4L1504 1345 178 2247.5z"/><path fill="#9f6a2b" d="M751.3 2685.4l-308.7 562.2 2104.2-97.6 185.8-461.5z"/><path fill="#ffb97b" d="M578 4276.1l-379.5-582.7-107.1-107.1-335.5 356z"/><path fill="#5f464f" d="M1190.7 2718.4L3005.1 2446l-2842.9 11L41 2757.8z"/><path fill="#efc3a2" d="M2014.4 2523.1l-193.7-1404.9 327.6-25.2 310.3 1354.5z"/><path fill="#807079" d="M2529.4 2526.3L2427.1 1638l491.4 949.7-77.2-72.4z"/><path fill="#0a0c0b" d="M554.4 1219L2022.3-244H203.2l154.3 549.6z"/><path fill="#e9d4cf" d="M3268.1 2082.1L2565.7 1405l370.1-1510.4L3244.5 74z"/><path fill="#eeefee" d="M1553 1341.9l352.7-11 15.8 1069.4 140.2-723z"/><path fill="#6c543a" d="M650.5 1694.7l-113.4 356-20.5 414.2 341.8 127.5z"/><path fill="#50423d" d="M-53.5 3693.4l796.9-1041.1-680.4-41 252-557.5z"/><path fill="#010204" d="M2332.6 871L645.8 652l-116.6 351.3 1112 133.9z"/><path fill="#5b2607" d="M2121.5 4276.1H597L49 3473l606.3 6.3z"/><path fill="#ebcac2" d="M-244.1 1779.8L578 1343.5 332.3 203.2 55.1-244.1z"/><path fill="#744a37" d="M1726.2 1556.1l-178-26.8 286.7-256.7-135.5 18.9z"/><path fill="#fabc8d" d="M179.6 2877.5L80.3 2791l-36.2-743.4L-121.3 3539z"/><path fill="#c09d71" d="M800.1 1699.4L919.8 1523l530.8 253.6-652 554.4z"/><path fill="#af8b67" d="M2343.6 2734.2l176.4 201.6-524.5-173.3-44-124.4z"/><path fill="#e3dbbb" d="M351.2 2494.8l138.6-25.2 36.2-83.5-149.6-39.3z"/><path fill="#b45f3f" d="M-39.4 1801.8l885.2-411-264.6-31.6 1020.6 107.1z"/><path fill="#392921" d="M2031.8 461.5l-730.9-107.1 1477.4-579.6L2635 1214.3z"/><path fill="#483018" d="M133.9 3102.8l11-415.9 184.3-17.3 329.1-17.3z"/><path fill="#3a2d25" d="M1036.3 1071l-242.5 300.8h53.5l392.2 12.6z"/><path fill="#ddc4bb" d="M-244.1 833.2l763.9 220.5-53.6 560.7-595.3 3.1z"/><path fill="#ececeb" d="M2179.8 1978.2l-99.2 118.1-271-993.8 47.3 1209.6z"/><path fill="#433a42" d="M1680.5 2641.3l734-34.7-86.6-168.5-1573.5 212.6z"/><path fill="#201307" d="M863.1 3254l1008-56.8 14.2 661.6-968.6-59.9z"/><path fill="#966f42" d="M1164 1212.8l171.6 162.2 486.7-85-526-151.3z"/><path fill="#504239" d="M2608.2 1652.2l660 776.4-305.6 415.8-107.1-242.5z"/><path fill="#0e0909" d="M2461.7 1658.5l102.4-543.4-2050.6-53.5L1937.3 619z"/><path fill="#a3753b" d="M537 2901.1l-280.3-50.4 86.7 296.2L548 3266.6z"/><path fill="#babab4" d="M1239.5 1479l403.2 89.7 63-69.3 56.7 1041z"/><path fill="#bdac99" d="M987.5 1129.3l968.7 163.8 269.3 52-89.8-214.2z"/><path fill="#65536a" d="M551.3 1351.3l121.2-349.6-89.7 521.3-368.6 789.1z"/><path fill="#a1643c" d="M1028.5 1556.1l340.2 982.8-672.5 47.2 382.7-478.7z"/><path fill="#dec6b2" d="M2359.4 1679l135.4 278.7-519.8-196.9 157.6-511.8z"/><path fill="#967667" d="M2509 1264.7l759 1072.6-88.2 294.5-217.3-453.6z"/><path fill="#faac78" d="M219 4151.7l-47.3-563.8-415.8-47.3v420.5z"/><path fill="#29262a" d="M308.7 2698l568.6-15.8 2257-157.5-1957.8 82z"/><path fill="#c37a43" d="M-244.1 2038l574.9-119.6 23.6-300.9-598.5 56.7z"/><path fill="#9b5240" d="M1200.2 2529.4L1901 2457l979.7-42.5-513.5 105.5z"/><path fill="#d2a66b" d="M1965.6 2268l283.5 162.2-129.1-226.8-241 33.1z"/><path fill="#ffdcbd" d="M2052.2 1195.4l376.5 990.7 40.9 173.3 52-157.5z"/><path fill="#7f4913" d="M2531 3137.4l47.3-244.1-464.7 26.7-670.9 252z"/><path fill="#7892a7" d="M2370.4 2368.8l-63-12.6 374.8-70.9-41 159.1z"/><path fill="#473e43" d="M126 3140.6L-86.6 3528l530.8-212.6-288.3-567z"/><path fill="#38190b" d="M2819.3 4239.9L340.2 3339l1649 937.1 1208-574.9z"/><path fill="#653117" d="M2611.4 1184.4l-152.8 244.1 267.7-1593.9 217.4-78.7z"/><path fill="#f1ac77" d="M-244.1 1715.2l513.4 395.3-152.7 379.6-176.4 699.3z"/><path fill="#3c3126" d="M3096.4 3057L1975 3381.6l63 894.6 683.6-1501z"/><path fill="#544a41" d="M2535.8 3954.8l732.3-560.7L2539 3336l-105.6 477z"/><path fill="#c0a07c" d="M737.1 2192.4l171.7-678.8 3.1 748.1 510.3-452z"/><path fill="#784c2f" d="M615.8 4276.1l-304-420.5 305.6-56.7 244.1 333.9z"/><path fill="#0a0f0e" d="M2540.5 3235L1167 3310.7l923-121.2 549.6-39.4z"/><path fill="#845232" d="M1770.3 1447.4l-515 47.3 341.8 34.6 152.7-22z"/><path fill="#d7c8c4" d="M2657 993.8l340.2 56.7-162.2 507.2-269.3-204.8z"/><path fill="#392419" d="M244.1 3726.4l1176.6-433-671 14.1-626.9 259.9z"/><path fill="#d1c5b1" d="M1387.6 1346.6l237.8 23.7 212.6 64.5-474-4.7z"/><path fill="#b39659" d="M1209.6 1477.3l-129.2 215.8 182.7 650.5 356-23.6z"/><path fill="#b47451" d="M14.2 2767.3L263 2431.8l478.8 99.2-675.6 97.7z"/><path fill="#67461e" d="M477.2 3157.9L330.8 2627 915 2803.5l-546.6 206.3z"/><path fill="#746875" d="M2178.2 1308.8l357.6 406.4-286.7-182.7-61.4-130.8z"/><path fill="#ab8259" d="M2299.5 2630.3l-302.4 173.2-17.3 67.7 407.9 12.6z"/><path fill="#796446" d="M593.8 1732.5l163.8-126 100.8 236.3-300.9 718.1z"/><path fill="#687791" d="M844.2 2601.9L337 2672.8l-322.8-33.1 415.8-30z"/><path fill="#14100f" d="M223.6-198.4l404.8 1275.7 622.2 93 874-1182.9z"/><path fill="#41311c" d="M2584.6 2535.8l329.1-17.4-206.3 231.5-749.7-138.6z"/><path fill="#c56b5b" d="M867.8 1263.2L789.1 1104l-61.4 197 151.1 17.3z"/><path fill="#b79d59" d="M311.9 2532.6l244-581.2 15.8-382.7L274 2464.9z"/><path fill="#f1e6e4" d="M3268.1 814.3l-459.9 773.3 52 294.5 119.7-270.9z"/><path fill="#a1713d" d="M1239.5 3227.2L2271.1 2824l-132.1-8-1359.5 434.8z"/><path fill="#dfd0bf" d="M1694.7 1220.6v-94.5l630 483.6-137-181.2z"/><path fill="#bbc6c6" d="M2001.8 2463.3l-285-574.9-456.8-374.8 455.2 946.6z"/><path fill="#8c5e38" d="M1132.4 1445.8l267.8-85 400-39.4-338.6-138.6z"/><path fill="#984840" d="M300.8 2372l363.9-1186-228.4 595.3-274 790.7z"/><path fill="#a26551" d="M2066.4 1302.5l14.2-45.6-124.4-12.7 138.5-72.4z"/><path fill="#9e4c3c" d="M2540.5 2036.5l170 335.4-335.4-787.5 25.2 190.6z"/><path fill="#57627d" d="M948.2 2617.6L656.8 2646l-127.6-53.6 1326.1-52z"/><path fill="#f5f4f4" d="M2047.5 1960.9l-122.8-149.7-47.3 258.4 219 132.3z"/><path fill="#c7a886" d="M997 2148.3l70.8-143.3-195.3 193.7 189 214.2z"/><path fill="#edcaaa" d="M2233.4 2209.7l286.6 228.4-447.3-1.6 502.4-185.8z"/><path fill="#97a9a0" d="M1527.8 2126.3L1901 2449l-395.3 20.5 85-31.5z"/><path fill="#b88f6b" d="M882 2827.1h-47.3l-22 30L967 3014.6z"/><path fill="#451e0e" d="M453.6 3729.6l482-245.7-1153-14.2 878.9 313.5z"/><path fill="#e9d3c3" d="M1326.2 1704.2l176.4 302.4-100.8-420.6-135.5-48.8z"/><path fill="#10110f" d="M1060 3258.7l1434.8-93L2583 3273l-382.7 23.6z"/><path fill="#b5c8dc" d="M2286.9 1682.1l113.4 152.8-207.9-530.8 311.8 700.9z"/><path fill="#947154" d="M1863.2 2616l-759.1 71 529.2 6.2 470.9-23.6z"/><path fill="#e7d2cb" d="M374.9 798.5l-598.5 167L263-100.8l58.3 211z"/><path fill="#eaae7e" d="M151.2 2898l-321.3-718.2 189 1151.3 80.3-338.6z"/><path fill="#c69c67" d="M2195.6 2375.1l-239.4-200 64.5 192.1 565.4-53.5z"/><path fill="#937e48" d="M401.6 2509l1230.1-36.2-211-381.2-324.5 237.8z"/><path fill="#1d1716" d="M2034.9-244.1L1011.1 414.2l324.5-58.3 1209.6 1074.2z"/><path fill="#917965" d="M765.5 2679l448.8-12.5 26.8 39.3-699.3 20.5z"/><path fill="#c29a6d" d="M1307.3 1553l217.3 4.7-341.8-154.4L1208 2079z"/><path fill="#a98570" d="M2729.5 3031.9L2216 2137.3l154.4-110.3-233.1-22z"/><path fill="#7c96ae" d="M2412.9 1943.6l119.7 96 36.2 105.5 140.2 348.1z"/><path fill="#9f4531" d="M530.8 1556.1l441 23.6 371.7-126-639.5-72.4z"/><path fill="#7c511c" d="M2513.7 2636.6l-1384.4 91.3-675.7 7.9 645.7 118.1z"/><path fill="#896c54" d="M261.5 2937.4L579.6 3268l937.1-55.1-1175-96z"/><path fill="#483a35" d="M3093.3 2510.6l-362.3-723-403.1-362.2 362.2 707.1z"/><path fill="#7a531a" d="M541.8 2924.8l-137 137 633.1 173.2 122.9-121.2z"/><path fill="#65656f" d="M2579.9 2518.4l-115-28.3-1027 75.6 343.4 4.7z"/><path fill="#867e8f" d="M6.3 2768.9l160.6-260 163.8-466.1 11-127.6z"/><path fill="#b25736" d="M1036.3 2362.5l329.2-283.5-195.3 37.8-47.2-167z"/><path fill="#40332e" d="M740.3 655.2l1063 724.5-53.5-122.9-119.7 3.2z"/><path fill="#d6dcdc" d="M1631.7 1716.8l311.8 425.2-122.8-272.5 50.4-689.8z"/><path fill="#472d1b" d="M578 2750l53.6 311.8-299.3-411-174.8 201.5z"/><path fill="#5b4140" d="M1460 1137.2l381.2-8 499.2-67.6-729.2 36.2z"/><path fill="#c19a6c" d="M1882.1 1354.5l4.8-89.8 140.1 537.1 311.9 1123z"/><path fill="#dcc5bb" d="M66.2 1582.9l390.6 25.2 53.5-584.4-297.7-126z"/><path fill="#4d413c" d="M1077.3 3419.3l-633.1-83.5-124.5-294.5-442.6 439.4z"/><path fill="#94755d" d="M941.8 1976.6l4.8-475.6 140.1 548L819 2172z"/><path fill="#ffe5c8" d="M2151.4 2197.1l66.2 233.1 23.6-157.5L1909 1250.6z"/><path fill="#b9b7ad" d="M1562.4 1601.8l163.8 426.8-52 170.1-362.2-669.4z"/></g></g></svg>